# xmcd
#
# Track frame offsets: 
#        150
#        13656
#        25382
#        37219
#        51290
#        63507
#        75372
#        89178
#        101551
#        114589
#        125265
#        139966
#        151461
#        162765
#        176012
#        187771
#        198007
#        209423
#        222152
#        235300
#
# Disc length: 3326 seconds
#
# Revision: 3
# Processed by: cddbd v1.5.2PL0 Copyright (c) Steve Scherf et al.
# Submitted via: ExactAudioCopyFreeDBPlugin 1.0
#
DISCID=190cfc14
DTITLE=Sunnyland Slim, Johnny Shines - ABC Of The Blues - Vol. 42 Slim
DTITLE=, Shines
DYEAR=2010
DGENRE=Blues
TTITLE0=Sunnyland Slim - Mud Kicking Woman
TTITLE1=Sunnyland Slim - Brown Skin Woman
TTITLE2=Sunnyland Slim - I'm Just A Lonesome Man
TTITLE3=Sunnyland Slim - Back To Korea Now
TTITLE4=Sunnyland Slim - You've Got To Stop This Mess
TTITLE5=Sunnyland Slim - Sunnyland Special
TTITLE6=Sunnyland Slim - Leaving Your Town
TTITLE7=Sunnyland Slim - I Done You Wrong
TTITLE8=Sunnyland Slim - Orphan Boy Blues
TTITLE9=Sunnyland Slim - When I Was Young (Shake It Baby)
TTITLE10=Sunnyland Slim - Hit The Road Again
TTITLE11=Johnny Shines - Ramblin'
TTITLE12=Johnny Shines - Fishtail
TTITLE13=Johnny Shines - Cool Drive
TTITLE14=Johnny Shines - Ain't Doin' No Good
TTITLE15=Johnny Shines - Evening Shuffle
TTITLE16=Johnny Shines - Evening Sun
TTITLE17=Johnny Shines - No Name Blues
TTITLE18=Johnny Shines - Brutal Hearted Woman
TTITLE19=Johnny Shines - Gonna Call The Angel
EXTD=
EXTT0=
EXTT1=
EXTT2=
EXTT3=
EXTT4=
EXTT5=
EXTT6=
EXTT7=
EXTT8=
EXTT9=
EXTT10=
EXTT11=
EXTT12=
EXTT13=
EXTT14=
EXTT15=
EXTT16=
EXTT17=
EXTT18=
EXTT19=
PLAYORDER=
